<?xml version="1.0" encoding="UTF-8"?>
<svg id="Camada_1" data-name="Camada 1" xmlns="http://www.w3.org/2000/svg" viewBox="0 0 1740.89 245.83">
  <defs>
    <style>
      .cls-1 {
        fill: #004ecf;
      }

      .cls-2 {
        fill: #003879;
      }
    </style>
  </defs>
  <g>
    <polygon class="cls-2" points="261.34 0 261.34 163.89 213.81 190.09 213.81 245.83 308 190.71 308 29.45 261.34 0"/>
    <polygon class="cls-1" points="166.28 0 166.28 163.89 213.81 190.09 213.81 245.83 119.62 190.71 119.62 29.45 166.28 0"/>
    <polygon class="cls-1" points="65.94 40.86 0 106.79 65.94 172.72 65.94 40.86"/>
    <polygon class="cls-2" points="361.68 172.72 427.61 106.79 361.68 40.86 361.68 172.72"/>
  </g>
  <g>
    <path class="cls-2" d="M587.02,199.83c-9.76,0-18.18-1.37-25.26-4.11-7.09-2.74-12.93-6.55-17.54-11.43-4.61-4.88-8.02-10.69-10.23-17.44-2.21-6.75-3.31-14.2-3.31-22.36V58.08h31.28v83.81c0,5.61.63,10.39,1.9,14.34,1.27,3.94,3.01,7.15,5.21,9.62,2.21,2.47,4.88,4.25,8.02,5.31,3.14,1.07,6.58,1.6,10.33,1.6,7.62,0,13.8-2.34,18.55-7.02,4.74-4.68,7.12-12.63,7.12-23.86V58.08h31.28v86.42c0,8.15-1.14,15.64-3.41,22.46-2.27,6.82-5.75,12.67-10.43,17.54-4.68,4.88-10.63,8.66-17.84,11.33-7.22,2.67-15.77,4.01-25.66,4.01Z"/>
    <path class="cls-2" d="M714.54,199.03c-8.69-.13-15.74-1.07-21.15-2.81s-9.69-4.18-12.83-7.32c-3.14-3.14-5.28-6.95-6.42-11.43-1.14-4.48-1.7-9.52-1.7-15.14V46.25l29.87-4.81v114.89c0,2.68.2,5.08.6,7.22.4,2.14,1.17,3.94,2.31,5.41,1.13,1.47,2.77,2.68,4.91,3.61,2.14.94,5.01,1.54,8.62,1.8l-4.21,24.66Z"/>
    <path class="cls-2" d="M734.79,65.3l29.87-4.81v31.08h35.89v24.86h-35.89v37.09c0,6.28,1.1,11.3,3.31,15.04,2.21,3.74,6.65,5.61,13.33,5.61,3.21,0,6.52-.3,9.92-.9s6.52-1.43,9.32-2.51l4.21,23.26c-3.61,1.47-7.62,2.74-12.03,3.81-4.41,1.07-9.82,1.6-16.24,1.6-8.15,0-14.91-1.1-20.25-3.31-5.35-2.21-9.62-5.28-12.83-9.22-3.21-3.94-5.45-8.72-6.72-14.34-1.27-5.61-1.9-11.83-1.9-18.65v-88.62Z"/>
    <path class="cls-2" d="M888.37,118.03c-2.68-.67-5.81-1.37-9.42-2.11-3.61-.73-7.49-1.1-11.63-1.1-1.87,0-4.11.17-6.72.5-2.61.33-4.58.7-5.92,1.1v80.6h-29.87v-99.85c5.34-1.87,11.66-3.64,18.95-5.31,7.28-1.67,15.4-2.51,24.36-2.51,1.6,0,3.54.1,5.81.3,2.27.2,4.54.47,6.82.8,2.27.33,4.54.74,6.82,1.2,2.27.47,4.21,1.04,5.81,1.7l-5.01,24.66Z"/>
    <path class="cls-2" d="M945.31,88.76c8.82,0,16.17,1,22.06,3.01,5.88,2,10.59,4.88,14.14,8.62,3.54,3.74,6.05,8.29,7.52,13.63,1.47,5.35,2.21,11.3,2.21,17.84v62.16c-4.28.94-10.23,2.04-17.84,3.31s-16.84,1.9-27.67,1.9c-6.82,0-13-.6-18.55-1.8-5.55-1.2-10.33-3.17-14.34-5.92-4.01-2.74-7.09-6.32-9.22-10.73-2.14-4.41-3.21-9.83-3.21-16.24s1.23-11.36,3.71-15.64c2.47-4.28,5.78-7.68,9.92-10.23,4.14-2.54,8.89-4.38,14.24-5.51,5.34-1.13,10.89-1.7,16.64-1.7,3.88,0,7.32.17,10.33.5,3.01.33,5.44.77,7.32,1.3v-2.81c0-5.08-1.54-9.15-4.61-12.23-3.08-3.07-8.42-4.61-16.04-4.61-5.08,0-10.09.37-15.04,1.1-4.95.74-9.22,1.77-12.83,3.11l-3.81-24.06c1.74-.53,3.91-1.1,6.52-1.7s5.44-1.13,8.52-1.6c3.07-.47,6.32-.87,9.72-1.2,3.41-.33,6.85-.5,10.33-.5ZM947.72,176.18c2.94,0,5.75-.07,8.42-.2,2.67-.13,4.81-.33,6.42-.6v-22.66c-1.2-.27-3.01-.53-5.41-.8-2.41-.27-4.61-.4-6.62-.4-2.81,0-5.45.17-7.92.5-2.48.33-4.65.97-6.52,1.91-1.87.94-3.34,2.21-4.41,3.81-1.07,1.6-1.6,3.61-1.6,6.01,0,4.68,1.57,7.92,4.71,9.72,3.14,1.8,7.45,2.71,12.93,2.71Z"/>
    <path class="cls-2" d="M1064.01,41.44c5.61,0,10.76.57,15.44,1.7,4.68,1.14,8.29,2.24,10.83,3.31l-5.81,23.86c-2.68-1.2-5.58-2.11-8.72-2.71-3.14-.6-6.05-.9-8.72-.9-3.61,0-6.65.5-9.12,1.5-2.47,1-4.41,2.38-5.81,4.11-1.4,1.74-2.41,3.81-3.01,6.22s-.9,5.01-.9,7.82v5.21h36.89v24.86h-36.89v80.6h-29.87v-111.08c0-13.63,3.84-24.46,11.53-32.48,7.68-8.02,19.08-12.03,34.19-12.03Z"/>
    <path class="cls-2" d="M1166.46,118.03c-2.68-.67-5.81-1.37-9.42-2.11-3.61-.73-7.49-1.1-11.63-1.1-1.87,0-4.11.17-6.72.5-2.61.33-4.58.7-5.92,1.1v80.6h-29.87v-99.85c5.34-1.87,11.66-3.64,18.95-5.31,7.28-1.67,15.4-2.51,24.36-2.51,1.6,0,3.54.1,5.81.3,2.27.2,4.54.47,6.82.8,2.27.33,4.54.74,6.82,1.2,2.27.47,4.21,1.04,5.81,1.7l-5.01,24.66Z"/>
    <path class="cls-2" d="M1220.2,61.09c0,5.48-1.77,9.79-5.31,12.93-3.54,3.14-7.72,4.71-12.53,4.71s-8.99-1.57-12.53-4.71c-3.54-3.14-5.31-7.45-5.31-12.93s1.77-9.79,5.31-12.93c3.54-3.14,7.72-4.71,12.53-4.71s8.99,1.57,12.53,4.71c3.54,3.14,5.31,7.45,5.31,12.93ZM1217.39,197.03h-29.87v-105.46h29.87v105.46Z"/>
    <path class="cls-2" d="M1344.1,144.1c0,8.29-1.2,15.87-3.61,22.76-2.41,6.89-5.88,12.77-10.43,17.64-4.55,4.88-9.99,8.66-16.34,11.33-6.35,2.67-13.47,4.01-21.35,4.01s-14.81-1.34-21.15-4.01c-6.35-2.67-11.8-6.45-16.34-11.33-4.55-4.88-8.09-10.76-10.63-17.64-2.54-6.88-3.81-14.47-3.81-22.76s1.3-15.84,3.91-22.66c2.61-6.82,6.22-12.63,10.83-17.44,4.61-4.81,10.09-8.55,16.44-11.23,6.35-2.67,13.26-4.01,20.75-4.01s14.6,1.34,20.95,4.01c6.35,2.68,11.79,6.42,16.34,11.23,4.54,4.81,8.09,10.63,10.63,17.44,2.54,6.82,3.81,14.37,3.81,22.66ZM1313.63,144.1c0-9.22-1.84-16.47-5.51-21.75-3.68-5.28-8.92-7.92-15.74-7.92s-12.1,2.64-15.84,7.92c-3.74,5.28-5.61,12.53-5.61,21.75s1.87,16.54,5.61,21.96c3.74,5.41,9.02,8.12,15.84,8.12s12.06-2.71,15.74-8.12c3.67-5.41,5.51-12.73,5.51-21.96Z"/>
    <path class="cls-2" d="M1510.11,170.16v26.87h-92.83V58.08h31.28v112.08h61.55Z"/>
    <path class="cls-2" d="M1626.8,144.1c0,8.29-1.2,15.87-3.61,22.76-2.41,6.89-5.88,12.77-10.43,17.64-4.55,4.88-9.99,8.66-16.34,11.33-6.35,2.67-13.47,4.01-21.35,4.01s-14.81-1.34-21.15-4.01c-6.35-2.67-11.8-6.45-16.34-11.33-4.55-4.88-8.09-10.76-10.63-17.64-2.54-6.88-3.81-14.47-3.81-22.76s1.3-15.84,3.91-22.66c2.61-6.82,6.22-12.63,10.83-17.44,4.61-4.81,10.09-8.55,16.44-11.23,6.35-2.67,13.26-4.01,20.75-4.01s14.6,1.34,20.95,4.01c6.35,2.68,11.79,6.42,16.34,11.23,4.54,4.81,8.09,10.63,10.63,17.44,2.54,6.82,3.81,14.37,3.81,22.66ZM1596.33,144.1c0-9.22-1.84-16.47-5.51-21.75-3.68-5.28-8.92-7.92-15.74-7.92s-12.1,2.64-15.84,7.92c-3.74,5.28-5.61,12.53-5.61,21.75s1.87,16.54,5.61,21.96c3.74,5.41,9.02,8.12,15.84,8.12s12.06-2.71,15.74-8.12c3.67-5.41,5.51-12.73,5.51-21.96Z"/>
    <path class="cls-2" d="M1740.89,183.79c0,17.24-4.38,30.04-13.13,38.4-8.76,8.35-22.29,12.53-40.6,12.53-6.42,0-12.83-.57-19.25-1.7-6.42-1.14-12.37-2.64-17.84-4.51l5.21-25.06c4.68,1.87,9.59,3.34,14.74,4.41,5.14,1.07,10.99,1.6,17.54,1.6,8.55,0,14.6-1.87,18.15-5.61,3.54-3.74,5.31-8.55,5.31-14.44v-3.81c-3.21,1.47-6.52,2.58-9.92,3.31-3.41.74-7.12,1.1-11.13,1.1-14.57,0-25.73-4.31-33.48-12.93-7.75-8.62-11.63-20.68-11.63-36.19,0-7.75,1.2-14.8,3.61-21.15,2.41-6.35,5.92-11.79,10.53-16.34,4.61-4.54,10.26-8.05,16.94-10.53,6.68-2.47,14.24-3.71,22.66-3.71,3.61,0,7.32.17,11.13.5,3.81.33,7.58.77,11.33,1.3,3.74.54,7.32,1.17,10.73,1.91,3.41.74,6.45,1.5,9.12,2.31v88.62ZM1675.32,140.89c0,16.71,6.75,25.06,20.25,25.06,3.07,0,5.95-.4,8.62-1.2,2.67-.8,4.94-1.74,6.82-2.81v-47.72c-1.47-.27-3.21-.5-5.21-.7-2.01-.2-4.35-.3-7.02-.3-7.89,0-13.77,2.61-17.64,7.82-3.88,5.21-5.81,11.83-5.81,19.85Z"/>
  </g>
</svg>